<svg width="22" height="20" viewBox="0 0 22 20" fill="none" xmlns="http://www.w3.org/2000/svg">
<path d="M17 18L16.2929 18.7071L17 19.4142L17.7071 18.7071L17 18ZM12 2C11.4477 2 11 2.44771 11 3C11 3.55229 11.4477 4 12 4L12 2ZM12.2929 14.7071L16.2929 18.7071L17.7071 17.2929L13.7071 13.2929L12.2929 14.7071ZM17.7071 18.7071L21.7071 14.7071L20.2929 13.2929L16.2929 17.2929L17.7071 18.7071ZM18 18L18 7L16 7L16 18L18 18ZM13 2L12 2L12 4L13 4L13 2ZM18 7C18 4.23858 15.7614 2 13 2L13 4C14.6569 4 16 5.34315 16 7L18 7Z" fill="#686868"/>
<path d="M5 2L5.70711 1.29289L5 0.585786L4.29289 1.29289L5 2ZM10 18C10.5523 18 11 17.5523 11 17C11 16.4477 10.5523 16 10 16L10 18ZM9.70711 5.29289L5.70711 1.29289L4.29289 2.70711L8.29289 6.70711L9.70711 5.29289ZM4.29289 1.29289L0.292893 5.29289L1.70711 6.70711L5.70711 2.70711L4.29289 1.29289ZM4 2L4 13L6 13L6 2L4 2ZM9 18L10 18L10 16L9 16L9 18ZM4 13C4 15.7614 6.23858 18 9 18L9 16C7.34315 16 6 14.6569 6 13L4 13Z" fill="#686868"/>
</svg>
