<svg width="11" height="16" viewBox="0 0 11 16" fill="none" xmlns="http://www.w3.org/2000/svg">
<path d="M5.49995 10.5L4.79284 11.2071L5.49995 11.9142L6.20705 11.2071L5.49995 10.5ZM6.49995 1.92857C6.49995 1.37629 6.05223 0.928572 5.49995 0.928572C4.94766 0.928572 4.49995 1.37629 4.49995 1.92857L6.49995 1.92857ZM0.507127 6.92139L4.79284 11.2071L6.20705 9.79289L1.92134 5.50718L0.507127 6.92139ZM6.20705 11.2071L10.4928 6.92139L9.07856 5.50718L4.79284 9.79289L6.20705 11.2071ZM6.49995 10.5L6.49995 1.92857L4.49995 1.92857L4.49995 10.5L6.49995 10.5Z" fill="#686868"/>
<path d="M0.5 14.0713L10.5 14.0713" stroke="#686868" stroke-width="2"/>
</svg>
