<svg width="11" height="10" viewBox="0 0 11 10" fill="none" xmlns="http://www.w3.org/2000/svg">
<path fill-rule="evenodd" clip-rule="evenodd" d="M9.22267 3.67423L10.0038 2.89313C10.6656 2.23129 10.6656 1.15823 10.0038 0.496383C9.34192 -0.165461 8.26886 -0.165461 7.60702 0.496384L6.81132 1.29208C7.37292 2.293 8.2076 3.12103 9.22267 3.67423ZM5.35629 2.74711L1.87233 6.23107C1.44727 6.65613 1.23474 6.86866 1.09501 7.12976C0.955271 7.39085 0.896326 7.68558 0.778436 8.27503L0.563852 9.34795C0.49733 9.68056 0.464069 9.84686 0.558677 9.94147C0.653285 10.0361 0.81959 10.0028 1.1522 9.9363L2.22512 9.72171C2.81457 9.60382 3.1093 9.54488 3.37039 9.40514C3.63149 9.26541 3.84402 9.05288 4.26908 8.62782L7.76382 5.13308C6.80037 4.51439 5.98053 3.7 5.35629 2.74711Z" fill="#A6A7AA"/>
</svg>
