<svg width="22" height="22" viewBox="0 0 22 22" fill="none" xmlns="http://www.w3.org/2000/svg">
<path d="M3.28571 19.125C3.28571 19.6223 3.4889 20.0992 3.85058 20.4508C4.21226 20.8025 4.7028 21 5.21429 21H16.7857C17.2972 21 17.7877 20.8025 18.1494 20.4508C18.5111 20.0992 18.7143 19.6223 18.7143 19.125V6H3.28571V19.125ZM14.2143 9.125C14.2143 8.95924 14.282 8.80027 14.4026 8.68306C14.5231 8.56585 14.6866 8.5 14.8571 8.5C15.0276 8.5 15.1912 8.56585 15.3117 8.68306C15.4323 8.80027 15.5 8.95924 15.5 9.125V17.875C15.5 18.0408 15.4323 18.1997 15.3117 18.3169C15.1912 18.4342 15.0276 18.5 14.8571 18.5C14.6866 18.5 14.5231 18.4342 14.4026 18.3169C14.282 18.1997 14.2143 18.0408 14.2143 17.875V9.125ZM10.3571 9.125C10.3571 8.95924 10.4249 8.80027 10.5454 8.68306C10.666 8.56585 10.8295 8.5 11 8.5C11.1705 8.5 11.334 8.56585 11.4546 8.68306C11.5751 8.80027 11.6429 8.95924 11.6429 9.125V17.875C11.6429 18.0408 11.5751 18.1997 11.4546 18.3169C11.334 18.4342 11.1705 18.5 11 18.5C10.8295 18.5 10.666 18.4342 10.5454 18.3169C10.4249 18.1997 10.3571 18.0408 10.3571 17.875V9.125ZM6.5 9.125C6.5 8.95924 6.56773 8.80027 6.68829 8.68306C6.80885 8.56585 6.97236 8.5 7.14286 8.5C7.31335 8.5 7.47687 8.56585 7.59743 8.68306C7.71798 8.80027 7.78571 8.95924 7.78571 9.125V17.875C7.78571 18.0408 7.71798 18.1997 7.59743 18.3169C7.47687 18.4342 7.31335 18.5 7.14286 18.5C6.97236 18.5 6.80885 18.4342 6.68829 18.3169C6.56773 18.1997 6.5 18.0408 6.5 17.875V9.125ZM19.3571 2.25001H14.5357L14.158 1.51954C14.078 1.36337 13.9548 1.23201 13.8022 1.14022C13.6496 1.04844 13.4736 0.999882 13.2942 1.00001H8.70179C8.52274 0.999338 8.34712 1.04772 8.19506 1.1396C8.04299 1.23149 7.92062 1.36316 7.84196 1.51954L7.46429 2.25001H2.64286C2.47236 2.25001 2.30885 2.31585 2.18829 2.43306C2.06773 2.55027 2 2.70925 2 2.87501V4.12501C2 4.29077 2.06773 4.44974 2.18829 4.56695C2.30885 4.68416 2.47236 4.75001 2.64286 4.75001H19.3571C19.5276 4.75001 19.6912 4.68416 19.8117 4.56695C19.9323 4.44974 20 4.29077 20 4.12501V2.87501C20 2.70925 19.9323 2.55027 19.8117 2.43306C19.6912 2.31585 19.5276 2.25001 19.3571 2.25001Z" fill="#686868"/>
</svg>
