<svg width="29" height="28" viewBox="0 0 29 28" fill="none" xmlns="http://www.w3.org/2000/svg">
<path d="M14.5 6L15.2071 5.29289L14.5 4.58579L13.7929 5.29289L14.5 6ZM13.5 18C13.5 18.5523 13.9477 19 14.5 19C15.0523 19 15.5 18.5523 15.5 18L13.5 18ZM21.2071 11.2929L15.2071 5.29289L13.7929 6.70711L19.7929 12.7071L21.2071 11.2929ZM13.7929 5.29289L7.79289 11.2929L9.20711 12.7071L15.2071 6.70711L13.7929 5.29289ZM13.5 6L13.5 18L15.5 18L15.5 6L13.5 6Z" fill="#A6A7AA"/>
<path d="M7.5 22L21.5 22" stroke="#A6A7AA" stroke-width="2"/>
</svg>
